<?xml version="1.0" standalone="no"?>
<!DOCTYPE svg PUBLIC "-//W3C//DTD SVG 20010904//EN"
 "http://www.w3.org/TR/2001/REC-SVG-20010904/DTD/svg10.dtd">
<svg version="1.0" xmlns="http://www.w3.org/2000/svg"
 width="180.000000pt" height="180.000000pt" viewBox="0 0 180.000000 180.000000"
 preserveAspectRatio="xMidYMid meet">
<metadata>
Created by potrace 1.14, written by Peter Selinger 2001-2017
</metadata>
<g transform="translate(0.000000,180.000000) scale(0.100000,-0.100000)"
fill="#000000" stroke="none">
<path d="M42 1780 c-8 -6 -10 -1759 -2 -1761 3 -1 391 -2 863 -3 565 -1 857 2
858 9 4 38 3 1755 -1 1756 -18 4 -1713 3 -1718 -1z m1036 -499 c7 -1 10 -5 7
-11 -3 -5 -8 -20 -11 -32 -2 -13 -7 -34 -9 -48 -7 -30 -16 -88 -19 -113 -4
-33 -24 -40 -120 -41 -93 -1 -95 -1 -99 24 -3 14 0 28 5 31 6 4 8 14 5 23 -3
8 -1 18 4 22 6 3 9 17 6 30 -2 13 0 24 5 24 5 0 8 8 7 18 -1 9 0 20 1 25 5 14
7 27 9 40 1 10 110 15 209 8z m-98 -530 c13 -1 13 -3 1 -10 -8 -5 -11 -16 -8
-25 3 -8 2 -18 -3 -21 -5 -3 -10 -16 -10 -28 0 -51 -5 -87 -12 -87 -4 0 -8
-10 -8 -22 0 -43 -3 -58 -14 -59 -15 -1 -166 -1 -188 0 -14 1 -16 8 -12 34 3
17 7 43 8 57 2 14 7 33 11 43 4 9 5 24 1 32 -3 8 -1 15 3 15 5 0 8 11 6 25 -4
40 21 50 121 49 49 -1 96 -3 104 -3z"/>
</g>
</svg>
